<svg width="285" height="258" viewBox="0 0 285 258" fill="none" xmlns="http://www.w3.org/2000/svg">
<path d="M0 86.7413L142.5 237.983L79.1667 86.7413H0Z" fill="#1FA2D7"/>
<path d="M205.833 86.7413L142.5 237.983L285 86.7413H205.833Z" fill="#93E0FD"/>
<path d="M142.5 86.7413H205.833L142.5 20.0172L79.1667 86.7413H142.5Z" fill="#93E0FD"/>
<path d="M142.5 86.7413H79.1667L142.5 237.983L205.833 86.7413H142.5Z" fill="#2BD5FB"/>
<path d="M63.8793 20.0172L0 86.7413H79.1667L63.8793 20.0172Z" fill="#25B7E9"/>
<path d="M285 86.7413L221.121 20.0172L205.833 86.7413H285Z" fill="#AEEFFE"/>
<path d="M221.121 20.0172H142.5L205.833 86.7413L221.121 20.0172Z" fill="#2BD5FB"/>
<path d="M142.5 20.0172H63.8794L79.1668 86.7413L142.5 20.0172Z" fill="#2CD5FB"/>
</svg>
