<svg width="186" height="42" viewBox="0 0 186 42" fill="none" xmlns="http://www.w3.org/2000/svg">
<g clip-path="url(#clip0_514_2039)">
<path d="M16.8102 5.28C17.9865 5.28 18.9402 4.09803 18.9402 2.64C18.9402 1.18197 17.9865 0 16.8102 0C15.6338 0 14.6802 1.18197 14.6802 2.64C14.6802 4.09803 15.6338 5.28 16.8102 5.28Z" fill="#27348B"/>
<path d="M6.78424 7.0532C7.78098 6.80471 8.34099 5.60845 8.03505 4.38128C7.72911 3.15411 6.67308 2.36073 5.67634 2.60922C4.6796 2.85772 4.11959 4.05398 4.42553 5.28115C4.73147 6.50831 5.7875 7.30169 6.78424 7.0532Z" fill="#BFBFBC"/>
<path d="M27.64 7.91C28.24 7.43 28.13 6.77 27.08 6.49C24.39 5.77 9.05999 5.06 9.05999 9.64C9.05999 10.73 10.43 11.94 10.96 12.73C11.84 14.04 12.4 14.83 10.9 17.66C10.48 18.45 9.38999 20.56 9.71999 23.77C9.71999 23.77 10.05 27.48 9.93999 31.46C9.87999 33.59 9.56999 35.71 9.12999 37.8L8.23999 42L16.52 24.57C16.52 24.57 19.14 19.84 17.29 16.42C17.08 16.04 16.91 15.64 16.83 15.21C16.53 13.7 16.97 12.83 20.03 11.36C20.8 10.99 22.19 10.45 22.81 10.19C23.35 9.96 25.71 9.08 27.62 7.92L27.64 7.91Z" fill="#27348B"/>
<path opacity="0.9" d="M24.4501 7.75999C18.5801 8.20999 15.3601 8.04999 6.18007 7.89999C-0.429926 7.79999 -0.219926 9.67999 0.160074 10.37C0.470074 10.93 1.42007 11.65 2.20007 12.14C4.49007 13.58 8.06007 15.26 6.05007 18.77C4.73007 21.08 5.61007 23.37 7.47007 28.61C8.27007 30.9 8.90007 35.8 8.63007 39.16C8.56007 39.99 8.40007 41.1 8.24007 42C8.24007 42 10.3201 32.94 12.4701 26.03C14.6401 19.08 13.0701 17.8 11.5801 16.69C11.5801 16.69 7.07007 13.9 11.0901 11.61C13.8001 10.07 15.6501 10.25 19.1601 9.38999C20.9501 8.94999 22.8201 8.45999 24.4501 7.75999Z" fill="#BFBFBC"/>
<path d="M32.6901 18.66C32.5601 18.3 32.5901 18.11 33.0101 18.04C35.2401 17.75 36.8601 16.45 38.9701 16.13C41.0401 15.81 42.6601 16.87 43.8601 18.98C46.8401 24.16 41.0701 33.62 32.3901 36.5C31.4501 36.82 30.8701 36.73 30.3201 36.27C29.9301 35.95 29.4101 35.53 28.9601 34.88C28.3401 34.04 28.1801 33.55 28.8601 31.45C29.8601 28.41 32.5501 23.35 34.7901 20.02C33.5301 19.95 32.8801 19.14 32.6901 18.66ZM35.6701 23.09C34.0501 25.97 31.4301 30.28 30.4901 33.26C30.0701 34.62 30.3001 35.07 31.2701 34.72C40.1101 31.35 44.1901 22.09 42.2801 19.04C41.1501 17.23 38.7801 18.94 36.5101 19.69C36.6701 20.5 36.4801 21.67 35.6701 23.09Z" fill="#27348B"/>
<path d="M42.7701 31.81C43.5701 29.47 45.6801 25.7 46.8701 24.03C47.1601 23.65 47.3801 23.55 47.6401 23.84C48.1201 24.35 48.3801 25.73 47.6101 27.33C46.9401 28.74 45.5901 30.91 44.9201 32.51C44.1501 34.37 44.2201 35.61 45.2401 35.55C46.6802 35.49 48.4401 33.37 49.4001 31.17C49.5601 30.88 49.7801 30.91 49.9101 31.17C50.1701 31.68 50.0701 32.35 49.6901 33.15C48.7301 35.13 46.7101 36.48 44.9201 36.48C42.4901 36.48 41.8801 34.43 42.7701 31.81ZM49.9101 23.46C49.4901 23.91 48.6001 23.81 48.1201 22.98C47.6101 22.12 47.7701 21.16 48.2801 20.61C48.7901 20.07 49.7201 20.45 50.1401 21.31C50.5501 22.14 50.3301 23.01 49.9101 23.46Z" fill="#27348B"/>
<path d="M60.66 23.65C60.95 23.23 61.2 23.17 61.43 23.46C61.91 24.04 62.17 25.41 61.4 27.01C60.7 28.45 59.1 30.85 58.33 32.55C57.53 34.34 57.5 35.72 58.59 35.65C59.36 35.61 60.36 34.91 61.14 33.78C61.45 33.34 61.65 32.66 61.89 32.8C62.52 33.23 62.25 34.43 61.71 34.98C60.75 35.95 59.53 36.64 58.4 36.58C56.67 36.48 55.78 35.46 55.78 33.96C54.76 35.27 53.32 36.46 51.78 36.46C48.8 36.46 48.2 32.4 50.85 28.52C53.44 24.74 55.97 23.3 57.57 23.3C58.95 23.3 59.59 24.36 59.52 25.6C59.93 24.83 60.31 24.16 60.66 23.65ZM58.1 24.96C57.08 24.86 54.74 26.94 52.98 29.79C51.28 32.54 50.87 35.36 52.12 35.39C53.43 35.42 55.1 33.37 56.73 30.56C58.74 27.04 59.03 25.06 58.1 24.96Z" fill="#27348B"/>
<path d="M83.1902 31.17C83.2502 31.01 83.3802 30.95 83.4802 30.95C83.6702 30.95 83.8602 31.24 83.8602 31.69C83.8602 33.83 81.0102 36.59 78.7102 36.59C74.1702 36.59 76.2502 31.92 77.5302 29.26L77.2702 29.23C75.0002 33.33 73.4002 35.95 70.5802 35.95C66.9302 35.95 68.1802 32.33 69.5202 29.26L69.2602 29.23C66.6402 33.97 64.7502 36.49 62.7302 36.53C61.3502 36.56 60.9102 35.76 60.9102 34.77C60.9102 33.46 61.5802 31.83 62.6702 31.83C62.8302 31.83 62.9302 31.86 62.9302 32.02C62.9302 32.08 62.9002 32.18 62.8302 32.28C62.3802 33.08 62.1302 34.04 62.1302 34.71C62.1302 35.25 62.2902 35.61 62.6402 35.61C63.6602 35.61 65.1002 33.53 68.4002 28.44L71.7602 23.22C71.9502 22.96 72.2102 22.84 72.4302 22.84C73.0102 22.84 73.2602 23.64 73.2602 24.41C73.2602 24.89 73.1602 25.4 72.9702 25.95C71.5302 30.11 70.3502 32.89 70.3502 33.89C70.3502 34.53 70.6702 34.98 71.1202 34.98C72.1802 34.98 73.2002 33.44 76.4002 28.45L79.7602 23.23C79.9502 22.97 80.2102 22.85 80.4302 22.85C81.0102 22.85 81.2602 23.65 81.2602 24.42C81.2602 24.9 81.1602 25.44 78.4402 32.74C78.1202 33.64 77.4202 35.62 79.0802 35.62C80.4102 35.58 81.9702 33.41 83.1902 31.17Z" fill="#27348B"/>
<path d="M93.3402 23.65C93.6302 23.23 93.8802 23.17 94.1102 23.46C94.5902 24.04 94.8502 25.41 94.0802 27.01C93.3802 28.45 91.7802 30.85 91.0102 32.55C90.2102 34.34 90.1802 35.72 91.2702 35.65C92.5802 35.59 94.3402 33.41 95.4602 31.2C95.6202 30.91 95.8402 30.88 95.9702 31.17C96.1002 31.46 96.1002 32.26 95.6802 33.15C94.8502 34.91 92.8302 36.67 91.0702 36.57C89.3402 36.47 88.4502 35.45 88.4502 33.95C87.4302 35.26 85.9902 36.45 84.4502 36.45C81.4702 36.45 80.8702 32.39 83.5202 28.51C86.1102 24.73 88.6402 23.29 90.2402 23.29C91.6202 23.29 92.2602 24.35 92.1902 25.59C92.6002 24.83 92.9802 24.16 93.3402 23.65ZM90.7702 24.96C89.7502 24.86 87.4102 26.94 85.6502 29.79C83.9502 32.54 83.5402 35.36 84.7902 35.39C86.1002 35.42 87.7702 33.37 89.4002 30.56C91.4102 27.04 91.7002 25.06 90.7702 24.96Z" fill="#27348B"/>
<path d="M95 36.16C94.87 36.45 94.68 36.58 94.39 36.29C93.75 35.65 93.56 34.59 94.07 32.99C94.71 30.97 97.17 26.53 99.19 23.55C99.41 23.2 99.67 23.23 99.86 23.55C100.34 24.35 100.47 25.73 99.86 26.78C98.49 29.22 96.38 33.15 95 36.16ZM102.94 29.57C101.28 30.37 95.1 31.3 95.1 31.3C94.17 31.49 94.49 30.08 95.52 29.86C95.52 29.86 101.73 28.96 103.2 28.13L102.94 29.57ZM100.7 31.81C101.5 29.47 103.61 25.7 104.8 24.03C105.09 23.65 105.31 23.55 105.57 23.84C106.05 24.35 106.31 25.73 105.54 27.33C104.87 28.74 103.52 30.91 102.85 32.51C102.08 34.37 102.15 35.61 103.17 35.55C104.61 35.49 106.37 33.37 107.33 31.17C107.49 30.88 107.71 30.91 107.84 31.17C108.1 31.68 108 32.35 107.62 33.15C106.66 35.13 104.64 36.48 102.85 36.48C100.41 36.48 99.8 34.43 100.7 31.81Z" fill="#27348B"/>
<path d="M117.14 23.42C118.23 23.45 118.8 25.15 118.39 26.56C119.93 25.06 122.07 23.55 123.13 23.58C124.28 23.61 124.54 25.5 123.9 27.1C123.32 28.54 121.76 30.65 120.96 32.25C120.06 34.07 120.51 35.55 121.66 35.51C122.97 35.48 124.41 33.37 125.66 31.13C125.82 30.84 126.08 30.84 126.24 31.07C126.4 31.3 126.3 32.35 125.95 33.09C125.05 34.91 123.01 36.51 121.15 36.51C118.37 36.51 117.34 34.3 118.53 31.68C119.71 29.02 122.56 25.44 122.08 25.28C121.82 25.18 120.74 25.54 118.66 27.62C116 30.28 114.44 33.35 113.09 36.36C112.9 36.74 112.64 36.84 112.35 36.52C111.81 36.04 111.36 34.79 112.29 32.49C113.35 29.83 116.8 25.42 116.16 25.19C115.78 25.03 114.21 25.89 112.16 28.13C110.27 30.18 108.74 33.15 107.46 36.16C107.33 36.45 107.14 36.58 106.85 36.32C106.15 35.71 105.99 34.66 106.53 33.02C107.2 31 109.54 26.49 111.55 23.48C111.77 23.13 112.03 23.16 112.22 23.48C112.76 24.38 112.67 25.62 112.19 26.9C113.59 25.28 115.99 23.39 117.14 23.42Z" fill="#27348B"/>
<path d="M127.1 27.94C127.04 27.65 127.07 27.46 127.42 27.49C129.15 27.59 131.52 27.23 132.99 27.23C134.59 27.23 135.2 27.97 135.39 28.89C135.45 29.18 135.39 29.37 135.04 29.34C132.7 29.15 130.91 29.69 129.44 29.63C127.94 29.57 127.3 28.9 127.1 27.94Z" fill="#27348B"/>
<path d="M142.03 17.57C141.97 17.28 142.06 17.15 142.38 17.19C145.04 17.35 148.56 16.42 150.35 16.39C151.69 16.36 152.4 16.9 152.78 17.96C152.88 18.22 152.81 18.44 152.43 18.38C150.13 18.35 147.89 18.92 145.93 19.24C144.65 21.16 143.08 23.94 141.51 26.79C142.37 26.63 143.21 26.57 143.78 26.53C145.38 26.47 146.08 26.98 146.4 27.97C146.5 28.26 146.5 28.45 146.08 28.45C144.35 28.45 141.95 28.9 140.16 29.35C139.23 31.14 138.37 32.9 137.7 34.41C139.24 33.93 141.35 33.48 142.66 33.42C144.23 33.36 145.03 33.87 145.38 34.83C145.48 35.12 145.44 35.31 145.06 35.31C143.27 35.28 139.78 36.11 137.99 36.59C137.38 36.75 137.03 36.75 136.65 36.27C136.39 35.98 136.2 35.5 135.98 35.09C135.69 34.55 135.69 34.13 136.01 33.27C137.48 29.33 140.68 23.38 143.37 19.22C142.57 18.88 142.22 18.24 142.03 17.57Z" fill="#27348B"/>
<path d="M161.23 31.17C161.39 30.88 161.61 30.88 161.77 31.14C161.99 31.49 161.93 32.23 161.48 33.16C160.62 34.95 158.6 36.58 156.74 36.58C153.8 36.58 152.77 34.85 155.56 29.25L155.3 29.22C152.58 34.4 150.5 36.52 148.77 36.52C146.5 36.52 146.75 34.41 147.36 32.84C147.74 31.82 149.34 31.4 148.86 32.26C148.06 33.7 147.9 35.59 148.67 35.59C149.5 35.59 151.07 33.67 154.43 28.42L157.79 23.2C158.11 22.75 158.65 22.69 158.91 23.01C159.39 23.59 159.42 24.8 159.01 25.92L156.48 32.7C155.74 34.59 155.87 35.64 157.12 35.58C158.45 35.52 160.01 33.41 161.23 31.17Z" fill="#27348B"/>
<path d="M159.92 31.81C160.72 29.47 162.83 25.7 164.02 24.03C164.31 23.65 164.53 23.55 164.79 23.84C165.27 24.35 165.53 25.73 164.76 27.33C164.09 28.74 162.74 30.91 162.07 32.51C161.3 34.37 161.37 35.61 162.39 35.55C163.83 35.49 165.59 33.37 166.55 31.17C166.71 30.88 166.93 30.91 167.06 31.17C167.32 31.68 167.22 32.35 166.84 33.15C165.88 35.13 163.86 36.48 162.07 36.48C159.63 36.48 159.02 34.43 159.92 31.81ZM167.05 23.46C166.63 23.91 165.74 23.81 165.26 22.98C164.75 22.12 164.91 21.16 165.42 20.61C165.93 20.07 166.86 20.45 167.28 21.31C167.69 22.14 167.47 23.01 167.05 23.46Z" fill="#27348B"/>
<path d="M176.3 23.42C177.39 23.45 177.96 25.15 177.55 26.56C179.09 25.06 181.23 23.55 182.29 23.58C183.44 23.61 183.7 25.5 183.06 27.1C182.48 28.54 180.92 30.65 180.12 32.25C179.22 34.07 179.67 35.55 180.82 35.51C182.13 35.48 183.57 33.37 184.82 31.13C184.98 30.84 185.24 30.84 185.4 31.07C185.56 31.29 185.46 32.35 185.11 33.09C184.21 34.91 182.17 36.51 180.31 36.51C177.53 36.51 176.5 34.3 177.69 31.68C178.87 29.02 181.72 25.44 181.24 25.28C180.98 25.18 179.9 25.54 177.82 27.62C175.16 30.28 173.6 33.35 172.25 36.36C172.06 36.74 171.8 36.84 171.51 36.52C170.97 36.04 170.52 34.79 171.45 32.49C172.51 29.83 175.96 25.42 175.32 25.19C174.94 25.03 173.37 25.89 171.32 28.13C169.43 30.18 167.9 33.15 166.62 36.16C166.49 36.45 166.3 36.58 166.01 36.32C165.31 35.71 165.15 34.66 165.69 33.02C166.36 31 168.7 26.49 170.71 23.48C170.93 23.13 171.19 23.16 171.38 23.48C171.92 24.38 171.83 25.62 171.35 26.9C172.75 25.28 175.15 23.39 176.3 23.42Z" fill="#27348B"/>
<path d="M45.03 1.42H46.04V5.23L49.64 1.42H50.86L47.18 5.28L51.22 10H49.9L46.03 5.38V10H45.02V1.42H45.03ZM51.81 9.41C52.08 9.41 52.31 9.32 52.49 9.13C52.61 9.02 52.7 8.86 52.76 8.65C52.82 8.44 52.87 8.22 52.9 7.98C52.93 7.75 52.95 7.51 52.95 7.28C52.95 7.05 52.96 6.85 52.96 6.69V4.64H56.37V10H55.44V5.43H53.83V6.78C53.83 7.13 53.82 7.5 53.79 7.89C53.77 8.28 53.69 8.64 53.57 8.97C53.45 9.3 53.27 9.59 53.01 9.83C52.76 10.06 52.41 10.2 51.95 10.23L51.81 9.41ZM60.1 9.47L58 4.64H59.06L60.62 8.49L62.27 4.64H63.28L59.68 12.61H58.65L60.1 9.47ZM69.35 1.59C69.21 1.72 69.06 1.82 68.89 1.91C68.72 1.99 68.55 2.06 68.37 2.12C68.19 2.17 68.01 2.22 67.83 2.27C67.65 2.31 67.47 2.36 67.3 2.42C66.92 2.54 66.6 2.71 66.36 2.93C66.12 3.15 65.92 3.4 65.77 3.69C65.62 3.97 65.51 4.28 65.44 4.62C65.37 4.96 65.32 5.31 65.3 5.67C65.5 5.29 65.77 5 66.1 4.79C66.44 4.58 66.82 4.47 67.25 4.47C67.67 4.47 68.04 4.55 68.36 4.7C68.68 4.85 68.95 5.06 69.16 5.33C69.38 5.59 69.54 5.9 69.65 6.25C69.76 6.6 69.81 6.97 69.81 7.36C69.81 7.79 69.75 8.17 69.63 8.53C69.51 8.88 69.34 9.19 69.1 9.44C68.87 9.69 68.58 9.89 68.24 10.04C67.9 10.18 67.51 10.26 67.08 10.26C66.65 10.26 66.26 10.19 65.91 10.04C65.57 9.9 65.28 9.7 65.04 9.44C64.81 9.18 64.63 8.88 64.5 8.52C64.38 8.16 64.31 7.77 64.31 7.35C64.31 6.78 64.33 6.19 64.38 5.58C64.43 4.97 64.55 4.4 64.74 3.86C64.93 3.32 65.21 2.84 65.58 2.42C65.95 2 66.46 1.69 67.12 1.5C67.25 1.46 67.39 1.42 67.55 1.38C67.71 1.34 67.87 1.29 68.03 1.25C68.19 1.2 68.34 1.15 68.49 1.09C68.63 1.02 68.76 0.950001 68.86 0.860001L69.35 1.59ZM68.85 7.45C68.85 7.17 68.82 6.9 68.75 6.65C68.69 6.39 68.59 6.17 68.45 5.98C68.31 5.79 68.13 5.63 67.91 5.52C67.69 5.4 67.43 5.34 67.11 5.34C66.81 5.34 66.54 5.39 66.32 5.49C66.1 5.59 65.91 5.73 65.76 5.91C65.61 6.09 65.49 6.3 65.42 6.55C65.35 6.79 65.31 7.06 65.31 7.34C65.31 7.62 65.35 7.88 65.43 8.13C65.51 8.37 65.63 8.58 65.78 8.76C65.93 8.94 66.12 9.08 66.35 9.19C66.58 9.29 66.84 9.34 67.12 9.34C67.41 9.34 67.66 9.3 67.88 9.21C68.1 9.12 68.28 8.99 68.42 8.82C68.56 8.65 68.67 8.45 68.74 8.22C68.81 7.97 68.85 7.72 68.85 7.45ZM80.64 1.59C80.5 1.72 80.35 1.82 80.18 1.91C80.01 1.99 79.84 2.06 79.66 2.12C79.48 2.17 79.3 2.22 79.12 2.27C78.94 2.31 78.76 2.36 78.59 2.42C78.21 2.54 77.89 2.71 77.65 2.93C77.41 3.15 77.21 3.4 77.06 3.69C76.91 3.97 76.8 4.28 76.73 4.62C76.66 4.96 76.61 5.31 76.59 5.67C76.79 5.29 77.06 5 77.39 4.79C77.73 4.58 78.11 4.47 78.54 4.47C78.96 4.47 79.33 4.55 79.65 4.7C79.97 4.85 80.24 5.06 80.45 5.33C80.67 5.59 80.83 5.9 80.94 6.25C81.05 6.6 81.1 6.97 81.1 7.36C81.1 7.79 81.04 8.17 80.92 8.53C80.8 8.88 80.63 9.19 80.39 9.44C80.16 9.69 79.87 9.89 79.53 10.04C79.19 10.18 78.8 10.26 78.37 10.26C77.94 10.26 77.55 10.19 77.2 10.04C76.86 9.9 76.57 9.7 76.33 9.44C76.1 9.18 75.92 8.88 75.79 8.52C75.67 8.16 75.6 7.77 75.6 7.35C75.6 6.78 75.62 6.19 75.67 5.58C75.72 4.97 75.84 4.4 76.03 3.86C76.22 3.32 76.5 2.84 76.87 2.42C77.24 2 77.75 1.69 78.41 1.5C78.54 1.46 78.68 1.42 78.84 1.38C79 1.34 79.16 1.29 79.32 1.25C79.48 1.2 79.63 1.15 79.78 1.09C79.92 1.02 80.05 0.950001 80.15 0.860001L80.64 1.59ZM80.14 7.45C80.14 7.17 80.11 6.9 80.04 6.65C79.98 6.39 79.88 6.17 79.74 5.98C79.6 5.79 79.42 5.63 79.2 5.52C78.98 5.4 78.72 5.34 78.4 5.34C78.1 5.34 77.83 5.39 77.61 5.49C77.39 5.59 77.2 5.73 77.05 5.91C76.9 6.09 76.78 6.3 76.71 6.55C76.64 6.79 76.6 7.06 76.6 7.34C76.6 7.62 76.64 7.88 76.72 8.13C76.8 8.37 76.92 8.58 77.07 8.76C77.22 8.94 77.41 9.08 77.64 9.19C77.87 9.29 78.13 9.34 78.41 9.34C78.7 9.34 78.95 9.3 79.17 9.21C79.39 9.12 79.57 8.99 79.71 8.82C79.85 8.65 79.96 8.45 80.03 8.22C80.1 7.97 80.14 7.72 80.14 7.45ZM87.27 9.03C87.06 9.42 86.78 9.72 86.45 9.93C86.12 10.13 85.74 10.23 85.33 10.23C84.95 10.23 84.6 10.16 84.28 10.02C83.96 9.88 83.69 9.69 83.47 9.44C83.25 9.19 83.07 8.88 82.95 8.53C82.83 8.17 82.76 7.78 82.76 7.33C82.76 6.88 82.82 6.48 82.94 6.12C83.06 5.76 83.23 5.45 83.46 5.21C83.68 4.96 83.95 4.77 84.26 4.64C84.57 4.51 84.91 4.44 85.29 4.44C86.19 4.44 86.84 4.84 87.26 5.64V4.64H88.17V10H87.28V9.03H87.27ZM87.27 7.37C87.27 7.06 87.23 6.78 87.14 6.54C87.05 6.29 86.93 6.08 86.77 5.9C86.61 5.72 86.42 5.59 86.2 5.5C85.98 5.41 85.74 5.36 85.49 5.36C84.94 5.36 84.51 5.53 84.2 5.86C83.89 6.2 83.74 6.67 83.74 7.29C83.74 7.94 83.89 8.44 84.2 8.79C84.51 9.14 84.95 9.32 85.52 9.32C86.06 9.32 86.49 9.15 86.8 8.82C87.11 8.48 87.27 7.99 87.27 7.37ZM89.79 9.41C90.06 9.41 90.29 9.32 90.47 9.13C90.59 9.02 90.68 8.86 90.74 8.65C90.8 8.44 90.85 8.22 90.88 7.98C90.91 7.75 90.93 7.51 90.93 7.28C90.93 7.05 90.94 6.85 90.94 6.69V4.64H94.35V10H93.42V5.43H91.81V6.78C91.81 7.13 91.8 7.5 91.77 7.89C91.75 8.28 91.67 8.64 91.55 8.97C91.43 9.3 91.25 9.59 90.99 9.83C90.74 10.06 90.39 10.2 89.93 10.23L89.79 9.41ZM96.85 4.64H97.75V6.87H98.56C98.81 6.87 99.04 6.89 99.26 6.92C99.49 6.95 99.7 7.03 99.89 7.15C100.12 7.29 100.29 7.48 100.41 7.72C100.53 7.95 100.59 8.19 100.59 8.43C100.59 8.67 100.54 8.91 100.43 9.14C100.32 9.37 100.15 9.56 99.92 9.71C99.71 9.85 99.47 9.93 99.21 9.96C98.94 9.99 98.7 10 98.46 10H96.84V4.64H96.85ZM97.74 9.23H98.26C98.53 9.23 98.74 9.22 98.9 9.21C99.06 9.19 99.2 9.15 99.3 9.09C99.39 9.03 99.46 8.94 99.51 8.83C99.57 8.72 99.6 8.59 99.6 8.44C99.6 8.11 99.47 7.88 99.21 7.74C99.11 7.69 99 7.65 98.87 7.64C98.75 7.62 98.6 7.62 98.43 7.62H97.73V9.23H97.74ZM102.36 4.64H103.28V6.61H106.07V4.64H106.99V10H106.07V7.42H103.28V10H102.36V4.64ZM114.83 7.33C114.83 8.13 114.55 8.81 113.98 9.36C113.7 9.64 113.38 9.86 113.03 10C112.68 10.15 112.31 10.22 111.92 10.22C111.11 10.22 110.42 9.94 109.85 9.37C109.29 8.81 109 8.13 109 7.33C109 6.94 109.07 6.57 109.22 6.22C109.36 5.87 109.57 5.56 109.85 5.28C110.13 5 110.45 4.79 110.79 4.65C111.14 4.51 111.51 4.44 111.91 4.44C112.31 4.44 112.68 4.51 113.03 4.66C113.38 4.8 113.69 5.02 113.97 5.29C114.25 5.56 114.46 5.87 114.6 6.22C114.76 6.57 114.83 6.94 114.83 7.33ZM113.85 7.33C113.85 7.04 113.8 6.78 113.7 6.54C113.6 6.29 113.47 6.08 113.29 5.9C113.11 5.71 112.91 5.57 112.67 5.47C112.44 5.36 112.19 5.31 111.93 5.31C111.66 5.31 111.4 5.36 111.16 5.47C110.93 5.57 110.72 5.72 110.55 5.9C110.37 6.08 110.24 6.3 110.13 6.54C110.03 6.78 109.98 7.05 109.98 7.33C109.98 7.62 110.03 7.89 110.13 8.13C110.24 8.37 110.38 8.59 110.55 8.77C110.73 8.95 110.93 9.1 111.16 9.2C111.4 9.3 111.65 9.35 111.92 9.35C112.18 9.35 112.43 9.3 112.66 9.2C112.9 9.09 113.1 8.95 113.28 8.77C113.46 8.59 113.59 8.37 113.69 8.13C113.8 7.89 113.85 7.62 113.85 7.33ZM116.88 4.64H120.07V5.44H117.8V10H116.88V4.64ZM127.22 7.33C127.22 8.13 126.94 8.81 126.37 9.36C126.09 9.64 125.77 9.86 125.42 10C125.07 10.15 124.7 10.22 124.31 10.22C123.5 10.22 122.81 9.94 122.24 9.37C121.67 8.8 121.39 8.12 121.39 7.33C121.39 6.94 121.46 6.57 121.61 6.22C121.76 5.87 121.97 5.56 122.24 5.28C122.52 5 122.84 4.79 123.18 4.65C123.53 4.51 123.9 4.44 124.3 4.44C124.7 4.44 125.07 4.51 125.42 4.66C125.77 4.8 126.08 5.02 126.36 5.29C126.64 5.56 126.85 5.87 126.99 6.22C127.15 6.57 127.22 6.94 127.22 7.33ZM126.24 7.33C126.24 7.04 126.19 6.78 126.09 6.54C125.99 6.29 125.85 6.08 125.68 5.9C125.5 5.71 125.3 5.57 125.06 5.47C124.83 5.36 124.58 5.31 124.32 5.31C124.05 5.31 123.79 5.36 123.55 5.47C123.31 5.57 123.11 5.72 122.93 5.9C122.75 6.08 122.62 6.3 122.51 6.54C122.41 6.78 122.36 7.05 122.36 7.33C122.36 7.62 122.41 7.89 122.51 8.13C122.62 8.37 122.76 8.59 122.93 8.77C123.11 8.95 123.31 9.1 123.54 9.2C123.78 9.3 124.03 9.35 124.3 9.35C124.56 9.35 124.81 9.3 125.04 9.2C125.28 9.09 125.49 8.95 125.66 8.77C125.83 8.59 125.97 8.37 126.07 8.13C126.19 7.89 126.24 7.62 126.24 7.33ZM134.41 5.44H132.68V4.64H137.06V5.44H135.33V10H134.41V5.44ZM142.88 9.03C142.67 9.42 142.39 9.72 142.06 9.93C141.73 10.13 141.35 10.23 140.94 10.23C140.56 10.23 140.21 10.16 139.89 10.02C139.57 9.88 139.3 9.69 139.08 9.44C138.86 9.19 138.68 8.88 138.56 8.53C138.44 8.17 138.37 7.78 138.37 7.33C138.37 6.88 138.43 6.48 138.55 6.12C138.67 5.76 138.84 5.45 139.06 5.21C139.28 4.96 139.55 4.77 139.86 4.64C140.17 4.51 140.51 4.44 140.89 4.44C141.79 4.44 142.44 4.84 142.86 5.64V4.64H143.77V10H142.88V9.03ZM142.88 7.37C142.88 7.06 142.84 6.78 142.75 6.54C142.66 6.29 142.54 6.08 142.38 5.9C142.22 5.72 142.03 5.59 141.81 5.5C141.59 5.41 141.35 5.36 141.09 5.36C140.54 5.36 140.11 5.53 139.8 5.86C139.49 6.2 139.34 6.67 139.34 7.29C139.34 7.94 139.49 8.44 139.8 8.79C140.11 9.14 140.55 9.32 141.12 9.32C141.66 9.32 142.09 9.15 142.4 8.82C142.73 8.48 142.88 7.99 142.88 7.37ZM146.23 4.64H147.15V6.61H149.94V4.64H150.86V10H149.94V7.42H147.15V10H146.23V4.64ZM157.65 10H153.32V4.64H154.24V9.2H157.03V4.64H157.95V9.2H158.52V11.49H157.65V10ZM160.46 4.64H161.39V6.84H162.13C162.18 6.5 162.29 6.18 162.45 5.89C162.61 5.6 162.8 5.34 163.04 5.13C163.28 4.91 163.56 4.74 163.87 4.63C164.18 4.51 164.52 4.45 164.88 4.45C165.29 4.45 165.67 4.52 166.01 4.67C166.35 4.82 166.64 5.02 166.88 5.29C167.13 5.55 167.32 5.85 167.45 6.2C167.59 6.55 167.66 6.93 167.66 7.34C167.66 7.74 167.59 8.12 167.45 8.47C167.31 8.82 167.12 9.13 166.88 9.39C166.64 9.65 166.34 9.85 166 10.01C165.66 10.16 165.28 10.24 164.88 10.24C164.5 10.24 164.15 10.17 163.83 10.04C163.5 9.91 163.22 9.72 162.98 9.49C162.74 9.25 162.54 8.98 162.39 8.66C162.24 8.34 162.15 8 162.11 7.63H161.39V10H160.46V4.64ZM166.68 7.33C166.68 7.06 166.64 6.8 166.55 6.56C166.47 6.31 166.35 6.1 166.19 5.91C166.03 5.72 165.84 5.57 165.61 5.46C165.39 5.35 165.14 5.3 164.87 5.3C164.59 5.3 164.34 5.35 164.11 5.46C163.89 5.57 163.7 5.72 163.54 5.91C163.38 6.1 163.26 6.31 163.17 6.56C163.09 6.8 163.05 7.06 163.05 7.33C163.05 7.6 163.09 7.86 163.18 8.11C163.27 8.35 163.39 8.57 163.55 8.75C163.71 8.93 163.9 9.09 164.12 9.2C164.35 9.31 164.6 9.36 164.87 9.36C165.15 9.36 165.4 9.31 165.62 9.2C165.85 9.09 166.04 8.94 166.19 8.75C166.35 8.56 166.47 8.35 166.55 8.11C166.64 7.87 166.68 7.61 166.68 7.33Z" fill="black"/>
</g>
<defs>
<clipPath id="clip0_514_2039">
<rect width="185.47" height="42" fill="white"/>
</clipPath>
</defs>
</svg>
