<svg width="185" height="42" viewBox="0 0 185 42" fill="none" xmlns="http://www.w3.org/2000/svg">
<g clip-path="url(#clip0_543_169)">
<path d="M45.5244 1.42011H46.5318V5.23011L50.1227 1.42011H51.3396L47.6689 5.28011L51.6987 10.0001H50.382L46.5218 5.38011V10.0001H45.5144V1.42011H45.5244ZM52.2772 9.41011C52.5465 9.41011 52.776 9.32011 52.9555 9.13011C53.0752 9.02011 53.165 8.86011 53.2248 8.65011C53.2847 8.44011 53.3345 8.22011 53.3645 7.98011C53.3944 7.75011 53.4143 7.51011 53.4143 7.28011C53.4143 7.05011 53.4243 6.85011 53.4243 6.69011V4.64011H56.8257V10.0001H55.898V5.43011H54.2921V6.78011C54.2921 7.13011 54.2821 7.50011 54.2522 7.89011C54.2323 8.28011 54.1525 8.64011 54.0328 8.97011C53.9131 9.30011 53.7335 9.59011 53.4742 9.83011C53.2248 10.0601 52.8757 10.2001 52.4169 10.2301L52.2772 9.41011ZM60.5462 9.47011L58.4515 4.64011H59.5088L61.0649 8.49011L62.7107 4.64011H63.7182L60.1273 12.6101H59.0999L60.5462 9.47011ZM69.7827 1.59011C69.6431 1.72011 69.4935 1.82011 69.3239 1.91011C69.1543 1.99011 68.9848 2.06011 68.8052 2.12011C68.6257 2.17011 68.4461 2.22011 68.2666 2.27011C68.0871 2.31011 67.9075 2.36011 67.7379 2.42011C67.3589 2.54011 67.0397 2.71011 66.8003 2.93011C66.5609 3.15011 66.3614 3.40011 66.2118 3.69011C66.0622 3.97011 65.9525 4.28011 65.8827 4.62011C65.8128 4.96011 65.763 5.31011 65.743 5.67011C65.9425 5.29011 66.2118 5.00011 66.541 4.79011C66.8801 4.58011 67.2592 4.47011 67.6881 4.47011C68.107 4.47011 68.4761 4.55011 68.7953 4.70011C69.1144 4.85011 69.3838 5.06011 69.5932 5.33011C69.8127 5.59011 69.9723 5.90011 70.082 6.25011C70.1917 6.60011 70.2416 6.97011 70.2416 7.36011C70.2416 7.79011 70.1817 8.17011 70.062 8.53011C69.9423 8.88011 69.7728 9.19011 69.5334 9.44011C69.304 9.69011 69.0147 9.89011 68.6756 10.0401C68.3364 10.1801 67.9474 10.2601 67.5185 10.2601C67.0896 10.2601 66.7006 10.1901 66.3515 10.0401C66.0123 9.90011 65.7231 9.70011 65.4837 9.44011C65.2543 9.18011 65.0747 8.88011 64.945 8.52011C64.8253 8.16011 64.7555 7.77011 64.7555 7.35011C64.7555 6.78011 64.7755 6.19011 64.8253 5.58011C64.8752 4.97011 64.9949 4.40011 65.1844 3.86011C65.3739 3.32011 65.6532 2.84011 66.0223 2.42011C66.3914 2.00011 66.9001 1.69011 67.5584 1.50011C67.6881 1.46011 67.8277 1.42011 67.9873 1.38011C68.1469 1.34011 68.3065 1.29011 68.4661 1.25011C68.6257 1.20011 68.7753 1.15011 68.9249 1.09011C69.0646 1.02011 69.1942 0.950107 69.294 0.860107L69.7827 1.59011ZM69.274 7.45011C69.274 7.17011 69.2441 6.90011 69.1743 6.65011C69.1144 6.39011 69.0147 6.17011 68.8751 5.98011C68.7354 5.79011 68.5559 5.63011 68.3364 5.52011C68.117 5.40011 67.8576 5.34011 67.5384 5.34011C67.2392 5.34011 66.9699 5.39011 66.7505 5.49011C66.531 5.59011 66.3415 5.73011 66.1919 5.91011C66.0423 6.09011 65.9226 6.30011 65.8527 6.55011C65.7829 6.79011 65.743 7.06011 65.743 7.34011C65.743 7.62011 65.7829 7.88011 65.8627 8.13011C65.9425 8.37011 66.0622 8.58011 66.2118 8.76011C66.3614 8.94011 66.551 9.08011 66.7804 9.19011C67.0098 9.29011 67.2691 9.34011 67.5484 9.34011C67.8377 9.34011 68.0871 9.30011 68.3065 9.21011C68.5259 9.12011 68.7055 8.99011 68.8451 8.82011C68.9848 8.65011 69.0945 8.45011 69.1643 8.22011C69.2441 7.97011 69.274 7.71011 69.274 7.45011ZM81.0441 1.59011C80.9045 1.72011 80.7549 1.82011 80.5853 1.91011C80.4157 1.99011 80.2462 2.06011 80.0666 2.12011C79.8871 2.17011 79.7075 2.22011 79.528 2.27011C79.3484 2.31011 79.1689 2.36011 78.9993 2.42011C78.6203 2.54011 78.3011 2.71011 78.0617 2.93011C77.8223 3.15011 77.6228 3.40011 77.4732 3.69011C77.3236 3.97011 77.2139 4.28011 77.144 4.62011C77.0742 4.96011 77.0243 5.31011 77.0044 5.67011C77.2039 5.29011 77.4732 5.00011 77.8024 4.79011C78.1415 4.58011 78.5205 4.47011 78.9495 4.47011C79.3684 4.47011 79.7375 4.55011 80.0566 4.70011C80.3758 4.85011 80.6451 5.06011 80.8546 5.33011C81.0741 5.59011 81.2337 5.90011 81.3434 6.25011C81.4531 6.60011 81.503 6.97011 81.503 7.36011C81.503 7.79011 81.4431 8.17011 81.3234 8.53011C81.2037 8.88011 81.0342 9.19011 80.7948 9.44011C80.5654 9.69011 80.2761 9.89011 79.937 10.0401C79.5978 10.1801 79.2088 10.2601 78.7799 10.2601C78.351 10.2601 77.962 10.1901 77.6129 10.0401C77.2737 9.90011 76.9845 9.70011 76.7451 9.44011C76.5156 9.18011 76.3361 8.88011 76.2064 8.52011C76.0867 8.16011 76.0169 7.77011 76.0169 7.35011C76.0169 6.78011 76.0369 6.19011 76.0867 5.58011C76.1366 4.97011 76.2563 4.40011 76.4458 3.86011C76.6353 3.32011 76.9146 2.84011 77.2837 2.42011C77.6528 2.00011 78.1615 1.69011 78.8198 1.50011C78.9495 1.46011 79.0891 1.42011 79.2487 1.38011C79.4083 1.34011 79.5679 1.29011 79.7275 1.25011C79.8871 1.20011 80.0367 1.15011 80.1863 1.09011C80.326 1.02011 80.4556 0.950107 80.5554 0.860107L81.0441 1.59011ZM80.5354 7.45011C80.5354 7.17011 80.5055 6.90011 80.4357 6.65011C80.3758 6.39011 80.2761 6.17011 80.1364 5.98011C79.9968 5.79011 79.8173 5.63011 79.5978 5.52011C79.3784 5.40011 79.119 5.34011 78.7998 5.34011C78.5006 5.34011 78.2313 5.39011 78.0118 5.49011C77.7924 5.59011 77.6029 5.73011 77.4533 5.91011C77.3036 6.09011 77.1839 6.30011 77.1141 6.55011C77.0443 6.79011 77.0044 7.06011 77.0044 7.34011C77.0044 7.62011 77.0443 7.88011 77.1241 8.13011C77.2039 8.37011 77.3236 8.58011 77.4732 8.76011C77.6228 8.94011 77.8123 9.08011 78.0418 9.19011C78.2712 9.29011 78.5305 9.34011 78.8098 9.34011C79.0991 9.34011 79.3484 9.30011 79.5679 9.21011C79.7873 9.12011 79.9669 8.99011 80.1065 8.82011C80.2462 8.65011 80.3559 8.45011 80.4257 8.22011C80.5055 7.97011 80.5354 7.71011 80.5354 7.45011ZM87.6474 9.03011C87.4379 9.42011 87.1586 9.72011 86.8294 9.93011C86.5003 10.1301 86.1212 10.2301 85.7023 10.2301C85.3233 10.2301 84.9742 10.1601 84.655 10.0201C84.3358 9.88011 84.0665 9.69011 83.847 9.44011C83.6276 9.19011 83.448 8.88011 83.3283 8.53011C83.1987 8.17011 83.1388 7.78011 83.1388 7.33011C83.1388 6.88011 83.1987 6.48011 83.3184 6.12011C83.4381 5.76011 83.6076 5.45011 83.837 5.21011C84.0565 4.96011 84.3258 4.77011 84.635 4.64011C84.9442 4.51011 85.2834 4.44011 85.6624 4.44011C86.5601 4.44011 87.2085 4.84011 87.6274 5.64011V4.64011H88.5351V10.0001H87.6474V9.03011ZM87.6474 7.37011C87.6474 7.06011 87.6075 6.78011 87.5177 6.54011C87.4279 6.29011 87.3082 6.08011 87.1486 5.90011C86.989 5.72011 86.7995 5.59011 86.5801 5.50011C86.3606 5.41011 86.1212 5.36011 85.8719 5.36011C85.3233 5.36011 84.8944 5.53011 84.5851 5.86011C84.2759 6.20011 84.1263 6.67011 84.1263 7.29011C84.1263 7.94011 84.2759 8.44011 84.5851 8.79011C84.8944 9.14011 85.3332 9.32011 85.9018 9.32011C86.4404 9.32011 86.8693 9.15011 87.1786 8.82011C87.4977 8.47011 87.6474 7.99011 87.6474 7.37011ZM90.161 9.41011C90.4303 9.41011 90.6597 9.32011 90.8393 9.13011C90.9589 9.02011 91.0487 8.86011 91.1086 8.65011C91.1684 8.44011 91.2183 8.22011 91.2482 7.98011C91.2781 7.75011 91.2981 7.51011 91.2981 7.28011C91.2981 7.05011 91.3081 6.85011 91.3081 6.69011V4.64011H94.7094V10.0001H93.7818V5.43011H92.1759V6.78011C92.1759 7.13011 92.1659 7.50011 92.136 7.89011C92.116 8.28011 92.0362 8.64011 91.9165 8.97011C91.7968 9.30011 91.6173 9.59011 91.3579 9.83011C91.1086 10.0601 90.7595 10.2001 90.3006 10.2301L90.161 9.41011ZM97.2031 4.64011H98.1008V6.87011H98.9088C99.1581 6.87011 99.3875 6.89011 99.607 6.92011C99.8364 6.95011 100.046 7.03011 100.235 7.15011C100.465 7.29011 100.634 7.48011 100.754 7.72011C100.874 7.95011 100.934 8.19011 100.934 8.43011C100.934 8.67011 100.884 8.91011 100.774 9.14011C100.664 9.37011 100.495 9.56011 100.265 9.71011C100.056 9.85011 99.8164 9.93011 99.5571 9.96011C99.2978 9.99011 99.0484 10.0001 98.819 10.0001H97.2031V4.64011ZM98.1008 9.23011H98.6195C98.8888 9.23011 99.0983 9.22011 99.2579 9.21011C99.4175 9.19011 99.5571 9.15011 99.6569 9.09011C99.7466 9.03011 99.8164 8.94011 99.8663 8.83011C99.9262 8.72011 99.9561 8.59011 99.9561 8.44011C99.9561 8.11011 99.8264 7.88011 99.5671 7.74011C99.4673 7.69011 99.3576 7.65011 99.2279 7.64011C99.1082 7.62011 98.9586 7.62011 98.7891 7.62011H98.0908V9.23011H98.1008ZM102.699 4.64011H103.617V6.61011H106.4V4.64011H107.317V10.0001H106.4V7.42011H103.617V10.0001H102.699V4.64011ZM115.147 7.33011C115.147 8.13011 114.868 8.81011 114.3 9.36011C114.02 9.64011 113.701 9.86011 113.352 10.0001C113.003 10.1501 112.634 10.2201 112.245 10.2201C111.437 10.2201 110.749 9.94011 110.18 9.37011C109.612 8.80011 109.332 8.12011 109.332 7.33011C109.332 6.94011 109.402 6.57011 109.552 6.22011C109.691 5.87011 109.901 5.56011 110.18 5.28011C110.459 5.00011 110.779 4.79011 111.118 4.65011C111.467 4.51011 111.836 4.44011 112.245 4.44011C112.644 4.44011 113.013 4.51011 113.362 4.66011C113.711 4.81011 114.02 5.02011 114.3 5.29011C114.579 5.56011 114.788 5.87011 114.928 6.22011C115.078 6.57011 115.147 6.94011 115.147 7.33011ZM114.16 7.33011C114.16 7.04011 114.11 6.78011 114.01 6.54011C113.911 6.29011 113.781 6.08011 113.601 5.90011C113.422 5.71011 113.222 5.57011 112.983 5.47011C112.754 5.36011 112.504 5.31011 112.245 5.31011C111.976 5.31011 111.716 5.36011 111.477 5.47011C111.247 5.57011 111.038 5.72011 110.858 5.90011C110.679 6.08011 110.549 6.30011 110.439 6.54011C110.34 6.78011 110.29 7.05011 110.29 7.33011C110.29 7.62011 110.34 7.89011 110.439 8.13011C110.549 8.37011 110.689 8.59011 110.858 8.77011C111.038 8.95011 111.237 9.10011 111.477 9.20011C111.716 9.30011 111.966 9.35011 112.235 9.35011C112.494 9.35011 112.744 9.30011 112.973 9.20011C113.212 9.09011 113.422 8.95011 113.591 8.77011C113.771 8.59011 113.901 8.37011 114 8.13011C114.11 7.89011 114.16 7.62011 114.16 7.33011ZM117.192 4.64011H120.374V5.44011H118.11V10.0001H117.192V4.64011ZM127.506 7.33011C127.506 8.13011 127.227 8.81011 126.658 9.36011C126.379 9.64011 126.06 9.86011 125.711 10.0001C125.362 10.1501 124.992 10.2201 124.603 10.2201C123.796 10.2201 123.107 9.94011 122.539 9.37011C121.97 8.81011 121.691 8.13011 121.691 7.33011C121.691 6.94011 121.761 6.57011 121.91 6.22011C122.06 5.87011 122.269 5.56011 122.539 5.28011C122.818 5.00011 123.137 4.79011 123.476 4.65011C123.825 4.51011 124.195 4.44011 124.603 4.44011C125.002 4.44011 125.372 4.51011 125.721 4.66011C126.07 4.80011 126.379 5.02011 126.658 5.29011C126.938 5.56011 127.147 5.87011 127.287 6.22011C127.436 6.57011 127.506 6.94011 127.506 7.33011ZM126.529 7.33011C126.529 7.04011 126.479 6.78011 126.379 6.54011C126.279 6.29011 126.14 6.08011 125.97 5.90011C125.79 5.71011 125.591 5.57011 125.352 5.47011C125.122 5.36011 124.873 5.31011 124.613 5.31011C124.344 5.31011 124.085 5.36011 123.845 5.47011C123.606 5.57011 123.407 5.72011 123.227 5.90011C123.047 6.08011 122.918 6.30011 122.808 6.54011C122.708 6.78011 122.658 7.05011 122.658 7.33011C122.658 7.62011 122.708 7.89011 122.808 8.13011C122.918 8.37011 123.057 8.59011 123.227 8.77011C123.407 8.95011 123.606 9.10011 123.845 9.20011C124.085 9.30011 124.334 9.35011 124.603 9.35011C124.863 9.35011 125.112 9.30011 125.342 9.20011C125.581 9.09011 125.79 8.95011 125.96 8.77011C126.13 8.59011 126.269 8.37011 126.369 8.13011C126.469 7.89011 126.529 7.62011 126.529 7.33011ZM134.668 5.44011H132.942V4.64011H137.311V5.44011H135.586V10.0001H134.668V5.44011ZM143.126 9.03011C142.917 9.42011 142.638 9.72011 142.308 9.93011C141.979 10.1301 141.6 10.2301 141.191 10.2301C140.812 10.2301 140.463 10.1601 140.144 10.0201C139.825 9.88011 139.555 9.69011 139.336 9.44011C139.117 9.19011 138.937 8.88011 138.817 8.53011C138.698 8.17011 138.628 7.78011 138.628 7.33011C138.628 6.88011 138.688 6.48011 138.807 6.12011C138.927 5.76011 139.097 5.45011 139.316 5.21011C139.536 4.96011 139.805 4.77011 140.114 4.64011C140.423 4.51011 140.762 4.44011 141.141 4.44011C142.039 4.44011 142.688 4.84011 143.106 5.64011V4.64011H144.014V10.0001H143.126V9.03011ZM143.126 7.37011C143.126 7.06011 143.087 6.78011 142.997 6.54011C142.907 6.29011 142.787 6.08011 142.628 5.90011C142.468 5.72011 142.279 5.59011 142.059 5.50011C141.84 5.41011 141.6 5.36011 141.341 5.36011C140.792 5.36011 140.363 5.53011 140.054 5.86011C139.745 6.20011 139.595 6.67011 139.595 7.29011C139.595 7.94011 139.745 8.44011 140.054 8.79011C140.363 9.14011 140.802 9.32011 141.371 9.32011C141.909 9.32011 142.338 9.15011 142.648 8.82011C142.967 8.47011 143.126 7.99011 143.126 7.37011ZM146.458 4.64011H147.376V6.61011H150.159V4.64011H151.076V10.0001H150.159V7.42011H147.376V10.0001H146.458V4.64011ZM157.849 10.0001H153.53V4.64011H154.448V9.20011H157.231V4.64011H158.148V9.20011H158.717V11.4901H157.849V10.0001ZM160.652 4.64011H161.58V6.84011H162.318C162.368 6.50011 162.477 6.18011 162.637 5.89011C162.796 5.60011 162.986 5.34011 163.225 5.13011C163.465 4.91011 163.744 4.74011 164.053 4.63011C164.362 4.51011 164.702 4.45011 165.061 4.45011C165.47 4.45011 165.849 4.52011 166.188 4.67011C166.527 4.82011 166.816 5.02011 167.056 5.29011C167.305 5.55011 167.494 5.85011 167.624 6.20011C167.764 6.55011 167.834 6.93011 167.834 7.34011C167.834 7.74011 167.764 8.12011 167.624 8.47011C167.485 8.82011 167.295 9.13011 167.056 9.39011C166.816 9.65011 166.517 9.85011 166.178 10.0101C165.839 10.1601 165.46 10.2401 165.051 10.2401C164.672 10.2401 164.323 10.1701 164.003 10.0401C163.674 9.91011 163.395 9.72011 163.156 9.49011C162.916 9.25011 162.717 8.98011 162.567 8.66011C162.417 8.34011 162.328 8.00011 162.288 7.63011H161.57V10.0001H160.642V4.64011H160.652ZM166.866 7.33011C166.866 7.06011 166.826 6.80011 166.736 6.56011C166.657 6.31011 166.537 6.10011 166.377 5.91011C166.218 5.72011 166.028 5.57011 165.799 5.46011C165.579 5.35011 165.33 5.30011 165.061 5.30011C164.781 5.30011 164.532 5.35011 164.303 5.46011C164.083 5.57011 163.894 5.72011 163.734 5.91011C163.574 6.10011 163.455 6.31011 163.365 6.56011C163.285 6.80011 163.245 7.06011 163.245 7.33011C163.245 7.60011 163.285 7.86011 163.375 8.11011C163.465 8.35011 163.584 8.57011 163.744 8.75011C163.904 8.93011 164.093 9.09011 164.313 9.20011C164.542 9.31011 164.791 9.36011 165.061 9.36011C165.34 9.36011 165.589 9.31011 165.809 9.20011C166.038 9.09011 166.228 8.94011 166.377 8.75011C166.537 8.56011 166.657 8.35011 166.736 8.11011C166.826 7.87011 166.866 7.61011 166.866 7.33011Z" fill="#BFBFBC"/>
<path d="M32.6072 18.6499C32.4775 18.2899 32.5075 18.0999 32.9264 18.0299C35.1507 17.7399 36.7666 16.4399 38.8713 16.1199C40.936 15.7999 42.5519 16.8599 43.7489 18.9699C46.7213 24.1499 40.966 33.6099 32.308 36.4899C31.3703 36.8099 30.7918 36.7199 30.2432 36.2599C29.8542 35.9399 29.3355 35.5199 28.8867 34.8699C28.2682 34.0299 28.1086 33.5399 28.7869 31.4399C29.7844 28.3999 32.4676 23.3399 34.7019 20.0099C33.4451 19.9499 32.8067 19.1399 32.6072 18.6499ZM35.5797 23.0899C33.9638 25.9699 31.3504 30.2799 30.4128 33.2599C29.9938 34.6199 30.2233 35.0699 31.1908 34.7199C40.0084 31.3499 44.0781 22.0899 42.1729 19.0399C41.0458 17.2299 38.6818 18.9399 36.4175 19.6899C36.5871 20.4999 36.3876 21.6699 35.5797 23.0899Z" fill="white"/>
<path d="M42.6717 31.8098C43.4696 29.4698 45.5743 25.6998 46.7613 24.0298C47.0505 23.6498 47.27 23.5498 47.5293 23.8398C48.0081 24.3498 48.2675 25.7298 47.4994 27.3298C46.8311 28.7398 45.4845 30.9098 44.8162 32.5098C44.0482 34.3698 44.118 35.6098 45.1354 35.5498C46.5718 35.4898 48.3273 33.3698 49.2849 31.1698C49.4445 30.8798 49.6639 30.9098 49.7936 31.1698C50.0529 31.6798 49.9532 32.3498 49.5741 33.1498C48.6166 35.1298 46.6017 36.4798 44.8162 36.4798C42.3824 36.4798 41.7739 34.4298 42.6717 31.8098ZM49.7836 23.4598C49.3647 23.9098 48.4769 23.8098 47.9981 22.9798C47.4894 22.1198 47.649 21.1598 48.1577 20.6098C48.6664 20.0698 49.5941 20.4498 50.013 21.3098C50.422 22.1398 50.2025 23.0098 49.7836 23.4598Z" fill="white"/>
<path d="M60.5064 23.6498C60.7956 23.2298 61.045 23.1698 61.2744 23.4598C61.7532 24.0398 62.0125 25.4098 61.2445 27.0098C60.5463 28.4498 58.9503 30.8498 58.1823 32.5498C57.3843 34.3398 57.3544 35.7198 58.4416 35.6498C59.2097 35.6098 60.2071 34.9098 60.9851 33.7798C61.2944 33.3398 61.4939 32.6598 61.7332 32.7998C62.3616 33.2298 62.0923 34.4298 61.5537 34.9798C60.5961 35.9498 59.3792 36.6398 58.2521 36.5798C56.5265 36.4798 55.6387 35.4598 55.6387 33.9598C54.6213 35.2698 53.185 36.4598 51.6489 36.4598C48.6764 36.4598 48.0779 32.3998 50.7212 28.5198C53.3047 24.7398 55.8282 23.2998 57.4242 23.2998C58.8007 23.2998 59.4391 24.3598 59.3693 25.5998C59.7782 24.8298 60.1572 24.1598 60.5064 23.6498ZM57.9528 24.9598C56.9354 24.8598 54.6014 26.9398 52.8458 29.7898C51.1501 32.5398 50.7412 35.3598 51.988 35.3898C53.2947 35.4198 54.9605 33.3698 56.5863 30.5598C58.5912 27.0398 58.8805 25.0598 57.9528 24.9598Z" fill="white"/>
<path d="M82.9793 31.1698C83.0391 31.0098 83.1688 30.9498 83.2685 30.9498C83.4581 30.9498 83.6476 31.2398 83.6476 31.6898C83.6476 33.8298 80.8048 36.5898 78.5106 36.5898C73.9821 36.5898 76.0569 31.9198 77.3336 29.2598L77.0743 29.2298C74.81 33.3298 73.2141 35.9498 70.4012 35.9498C66.7605 35.9498 68.0073 32.3298 69.3439 29.2598L69.0846 29.2298C66.4712 33.9698 64.586 36.4898 62.5711 36.5298C61.1946 36.5598 60.7557 35.7598 60.7557 34.7698C60.7557 33.4598 61.424 31.8298 62.5113 31.8298C62.6709 31.8298 62.7706 31.8598 62.7706 32.0198C62.7706 32.0798 62.7407 32.1798 62.6709 32.2798C62.222 33.0798 61.9726 34.0398 61.9726 34.7098C61.9726 35.2498 62.1322 35.6098 62.4814 35.6098C63.4988 35.6098 64.9351 33.5298 68.2268 28.4398L71.5782 23.2198C71.7678 22.9598 72.0271 22.8398 72.2465 22.8398C72.8251 22.8398 73.0744 23.6398 73.0744 24.4098C73.0744 24.8898 72.9747 25.3998 72.7852 25.9498C71.3488 30.1098 70.1718 32.8898 70.1718 33.8898C70.1718 34.5298 70.491 34.9798 70.9399 34.9798C71.9972 34.9798 73.0146 33.4398 76.2065 28.4498L79.558 23.2298C79.7475 22.9698 80.0068 22.8498 80.2263 22.8498C80.8048 22.8498 81.0542 23.6498 81.0542 24.4198C81.0542 24.8998 80.9544 25.4398 78.2413 32.7398C77.9221 33.6398 77.2239 35.6198 78.8797 35.6198C80.2063 35.5798 81.7723 33.4098 82.9793 31.1698Z" fill="white"/>
<path d="M93.1035 23.6498C93.3928 23.2298 93.6421 23.1698 93.8715 23.4598C94.3503 24.0398 94.6097 25.4098 93.8416 27.0098C93.1434 28.4498 91.5475 30.8498 90.7794 32.5498C89.9814 34.3398 89.9515 35.7198 91.0387 35.6498C92.3454 35.5898 94.101 33.4098 95.2181 31.1998C95.3777 30.9098 95.5972 30.8798 95.7268 31.1698C95.8565 31.4598 95.8565 32.2598 95.4376 33.1498C94.6097 34.9098 92.5948 36.6698 90.8392 36.5698C89.1136 36.4698 88.2259 35.4498 88.2259 33.9498C87.2085 35.2598 85.7721 36.4498 84.236 36.4498C81.2636 36.4498 80.6651 32.3898 83.3084 28.5098C85.8918 24.7298 88.4154 23.2898 90.0113 23.2898C91.3879 23.2898 92.0262 24.3498 91.9564 25.5898C92.3654 24.8298 92.7544 24.1598 93.1035 23.6498ZM90.55 24.9598C89.5326 24.8598 87.1985 26.9398 85.443 29.7898C83.7473 32.5398 83.3383 35.3598 84.5851 35.3898C85.8918 35.4198 87.5576 33.3698 89.1835 30.5598C91.1884 27.0398 91.4776 25.0598 90.55 24.9598Z" fill="white"/>
<path d="M94.7593 36.16C94.6296 36.45 94.4401 36.58 94.1509 36.29C93.5125 35.65 93.323 34.59 93.8317 32.99C94.47 30.97 96.9238 26.53 98.9387 23.55C99.1581 23.2 99.4175 23.23 99.607 23.55C100.086 24.35 100.215 25.73 99.607 26.78C98.2405 29.22 96.1358 33.15 94.7593 36.16ZM102.679 29.57C101.023 30.37 94.8591 31.3 94.8591 31.3C93.9314 31.49 94.2506 30.08 95.278 29.86C95.278 29.86 101.472 28.96 102.939 28.13L102.679 29.57ZM100.445 31.81C101.243 29.47 103.347 25.7 104.534 24.03C104.824 23.65 105.043 23.55 105.303 23.84C105.781 24.35 106.041 25.73 105.273 27.33C104.604 28.74 103.258 30.91 102.589 32.51C101.821 34.37 101.891 35.61 102.909 35.55C104.345 35.49 106.101 33.37 107.058 31.17C107.218 30.88 107.437 30.91 107.567 31.17C107.826 31.68 107.726 32.35 107.347 33.15C106.39 35.13 104.375 36.48 102.589 36.48C100.156 36.48 99.5471 34.43 100.445 31.81Z" fill="white"/>
<path d="M116.853 23.4199C117.94 23.4499 118.509 25.1499 118.1 26.5599C119.636 25.0599 121.771 23.5499 122.828 23.5799C123.975 23.6099 124.234 25.4999 123.596 27.0999C123.018 28.5399 121.461 30.6499 120.664 32.2499C119.766 34.0699 120.215 35.5499 121.362 35.5099C122.668 35.4799 124.105 33.3699 125.352 31.1299C125.511 30.8399 125.771 30.8399 125.93 31.0699C126.09 31.2999 125.99 32.3499 125.641 33.0899C124.743 34.9099 122.708 36.5099 120.853 36.5099C118.08 36.5099 117.053 34.2999 118.24 31.6799C119.417 29.0199 122.259 25.4399 121.781 25.2799C121.521 25.1799 120.444 25.5399 118.369 27.6199C115.716 30.2799 114.16 33.3499 112.813 36.3599C112.624 36.7399 112.365 36.8399 112.075 36.5199C111.537 36.0399 111.088 34.7899 112.015 32.4899C113.073 29.8299 116.514 25.4199 115.876 25.1899C115.497 25.0299 113.931 25.8899 111.886 28.1299C110.001 30.1799 108.474 33.1499 107.198 36.1599C107.068 36.4499 106.879 36.5799 106.589 36.3199C105.891 35.7099 105.731 34.6599 106.27 33.0199C106.938 30.9999 109.272 26.4899 111.277 23.4799C111.497 23.1299 111.756 23.1599 111.946 23.4799C112.484 24.3799 112.395 25.6199 111.916 26.8999C113.302 25.2799 115.696 23.3899 116.853 23.4199Z" fill="white"/>
<path d="M126.788 27.94C126.728 27.65 126.758 27.46 127.107 27.49C128.833 27.59 131.197 27.23 132.663 27.23C134.259 27.23 134.867 27.97 135.057 28.89C135.117 29.18 135.057 29.37 134.708 29.34C132.374 29.15 130.588 29.69 129.122 29.63C127.616 29.57 126.977 28.9 126.788 27.94Z" fill="white"/>
<path d="M141.67 17.5699C141.61 17.2799 141.7 17.1499 142.019 17.1899C144.673 17.3499 148.184 16.4199 149.969 16.3899C151.306 16.3599 152.014 16.8999 152.393 17.9599C152.493 18.2199 152.423 18.4399 152.044 18.3799C149.75 18.3499 147.515 18.9199 145.56 19.2399C144.283 21.1599 142.717 23.9399 141.151 26.7899C142.009 26.6299 142.847 26.5699 143.416 26.5299C145.012 26.4699 145.71 26.9799 146.029 27.9699C146.129 28.2599 146.129 28.4499 145.71 28.4499C143.984 28.4499 141.59 28.8999 139.805 29.3499C138.877 31.1399 138.019 32.8999 137.351 34.4099C138.887 33.9299 140.992 33.4799 142.299 33.4199C143.865 33.3599 144.663 33.8699 145.012 34.8299C145.111 35.1199 145.071 35.3099 144.692 35.3099C142.907 35.2799 139.426 36.1099 137.64 36.5899C137.032 36.7499 136.683 36.7499 136.304 36.2699C136.044 35.9799 135.855 35.4999 135.635 35.0899C135.346 34.5499 135.346 34.1299 135.665 33.2699C137.132 29.3299 140.324 23.3799 143.007 19.2199C142.219 18.8799 141.87 18.2399 141.67 17.5699Z" fill="white"/>
<path d="M160.821 31.17C160.981 30.88 161.201 30.88 161.36 31.14C161.58 31.49 161.52 32.23 161.071 33.16C160.213 34.95 158.198 36.58 156.343 36.58C153.41 36.58 152.383 34.85 155.166 29.25L154.907 29.22C152.193 34.4 150.119 36.52 148.393 36.52C146.129 36.52 146.378 34.41 146.987 32.84C147.366 31.82 148.962 31.4 148.483 32.26C147.685 33.7 147.525 35.59 148.293 35.59C149.121 35.59 150.687 33.67 154.039 28.42L157.39 23.2C157.709 22.75 158.248 22.69 158.507 23.01C158.986 23.59 159.016 24.8 158.607 25.92L156.084 32.7C155.345 34.59 155.475 35.64 156.722 35.58C158.049 35.52 159.615 33.41 160.821 31.17Z" fill="white"/>
<path d="M159.515 31.8098C160.313 29.4698 162.417 25.6998 163.604 24.0298C163.894 23.6498 164.113 23.5498 164.372 23.8398C164.851 24.3498 165.111 25.7298 164.343 27.3298C163.674 28.7398 162.328 30.9098 161.659 32.5098C160.891 34.3698 160.961 35.6098 161.979 35.5498C163.415 35.4898 165.17 33.3698 166.128 31.1698C166.288 30.8798 166.507 30.9098 166.637 31.1698C166.896 31.6798 166.796 32.3498 166.417 33.1498C165.46 35.1298 163.445 36.4798 161.659 36.4798C159.226 36.4798 158.627 34.4298 159.515 31.8098ZM166.637 23.4598C166.218 23.9098 165.33 23.8098 164.851 22.9798C164.343 22.1198 164.502 21.1598 165.011 20.6098C165.52 20.0698 166.447 20.4498 166.866 21.3098C167.275 22.1398 167.046 23.0098 166.637 23.4598Z" fill="white"/>
<path d="M175.863 23.4199C176.951 23.4499 177.519 25.1499 177.11 26.5599C178.646 25.0599 180.781 23.5499 181.838 23.5799C182.985 23.6099 183.245 25.4999 182.606 27.0999C182.028 28.5399 180.472 30.6499 179.674 32.2499C178.776 34.0699 179.225 35.5499 180.372 35.5099C181.679 35.4799 183.115 33.3699 184.362 31.1299C184.521 30.8399 184.781 30.8399 184.94 31.0699C185.1 31.2899 185 32.3499 184.651 33.0899C183.753 34.9099 181.718 36.5099 179.863 36.5099C177.09 36.5099 176.063 34.2999 177.25 31.6799C178.427 29.0199 181.27 25.4399 180.791 25.2799C180.531 25.1799 179.454 25.5399 177.379 27.6199C174.726 30.2799 173.17 33.3499 171.824 36.3599C171.634 36.7399 171.375 36.8399 171.085 36.5199C170.547 36.0399 170.098 34.7899 171.026 32.4899C172.083 29.8299 175.524 25.4199 174.886 25.1899C174.507 25.0299 172.941 25.8899 170.896 28.1299C169.011 30.1799 167.485 33.1499 166.208 36.1599C166.078 36.4499 165.889 36.5799 165.599 36.3199C164.901 35.7099 164.742 34.6599 165.28 33.0199C165.949 30.9999 168.283 26.4899 170.287 23.4799C170.507 23.1299 170.766 23.1599 170.956 23.4799C171.494 24.3799 171.405 25.6199 170.926 26.8999C172.312 25.2799 174.706 23.3899 175.863 23.4199Z" fill="white"/>
<path d="M16.7674 5.26999C17.9444 5.26999 18.892 4.08999 18.892 2.62999C18.892 1.16999 17.9444 -0.0100098 16.7674 -0.0100098C15.5904 -0.0100098 14.6428 1.16999 14.6428 2.62999C14.6428 4.08999 15.5904 5.26999 16.7674 5.26999Z" fill="white"/>
<path d="M8.00969 4.37995C8.3189 5.60995 7.76032 6.80995 6.77283 7.05995C5.78534 7.30995 4.72802 6.50995 4.42878 5.27995C4.12954 4.04995 4.67815 2.84995 5.66564 2.59995C6.65313 2.34995 7.71045 3.14995 8.00969 4.37995Z" fill="#BFBFBC"/>
<path d="M27.56 7.93998C28.1684 7.45998 28.0487 6.79998 26.9914 6.51998C24.2783 5.80998 8.79766 5.09998 8.79766 9.66998C8.79766 10.76 10.1742 11.97 10.7128 12.76C11.6005 14.07 12.1691 14.86 10.6529 17.69C10.234 18.48 9.12682 20.58 9.46596 23.79C9.46596 23.79 9.79512 27.49 9.6854 31.47C9.62556 33.6 9.30637 35.72 8.86748 37.81L7.97974 42L16.3385 24.59C16.3385 24.59 18.9818 19.86 17.1165 16.45C16.9071 16.07 16.7375 15.67 16.6477 15.24C16.3485 13.73 16.7973 12.86 19.8795 11.4C20.6575 11.03 22.064 10.49 22.6924 10.23C23.241 9.99998 25.6249 9.11998 27.55 7.95998L27.56 7.93998Z" fill="white"/>
<path d="M24.1387 7.76001C18.3434 8.21001 15.1615 8.05001 6.09455 7.90001C-0.438848 7.80001 -0.22938 9.68001 0.149657 10.37C0.458871 10.93 1.38651 11.65 2.16454 12.14C4.42879 13.58 7.94984 15.26 5.96488 18.77C4.66818 21.08 5.526 23.37 7.36134 28.61C8.15931 30.88 8.77774 35.78 8.50842 39.15C8.44857 39.99 8.29895 41.1 8.13936 42C8.13936 42 10.1941 32.94 12.3187 26.03C14.4633 19.08 12.9072 17.8 11.441 16.69C11.441 16.69 6.9823 13.9 10.9522 11.61C13.6354 10.07 15.4608 10.25 18.922 9.38001C20.6875 8.95001 22.5328 8.47001 24.1387 7.76001Z" fill="#BFBFBC"/>
</g>
<defs>
<clipPath id="clip0_543_169">
<rect width="185" height="42" fill="white"/>
</clipPath>
</defs>
</svg>
