<svg width="381" height="508" viewBox="0 0 381 508" fill="none" xmlns="http://www.w3.org/2000/svg">
<path d="M380.342 117.634L128.888 507.389L0.258789 158.254L54.4183 55.7376L300.07 0.611023L380.342 117.634Z" fill="#F5F4F4"/>
<path d="M237.207 93.4558C238.174 106.029 229.47 117.634 216.897 118.601C204.324 116.667 195.62 106.029 196.587 93.4558C195.62 80.8831 204.324 69.2775 216.897 68.3103C229.47 69.2775 239.141 80.8831 237.207 93.4558Z" fill="#27348B"/>
<path d="M131.789 109.897C135.658 120.536 129.855 132.141 120.184 136.01C109.545 136.977 98.9068 130.207 96.9725 118.601C93.104 107.963 98.9067 96.3572 108.578 92.4887C120.184 91.5216 130.822 99.2586 131.789 109.897Z" fill="#C6C5C2"/>
<path d="M321.347 143.747C327.149 138.911 326.182 133.108 315.544 130.207C289.431 123.437 141.46 116.667 141.46 161.155C141.46 171.794 155 183.399 159.835 191.136C168.54 203.709 173.375 211.446 158.868 238.526C149.197 256.901 145.328 277.211 147.263 297.521C149.197 322.667 150.164 346.845 149.197 371.99C148.23 392.3 145.328 412.61 141.46 432.92L132.756 473.539L213.995 305.258C213.995 305.258 239.14 259.803 221.732 226.92C219.798 223.052 217.863 219.183 216.896 215.315C213.995 200.808 217.863 192.103 247.845 178.564C255.582 174.695 269.121 169.859 274.924 166.958C290.398 160.188 306.84 152.451 321.347 143.747Z" fill="#27348B"/>
<path d="M109.545 143.747C50.55 143.747 52.4842 161.155 56.3528 167.925C61.1885 174.695 67.9584 180.498 75.6955 185.333C97.9395 198.873 132.756 215.315 113.414 249.164C100.841 271.408 108.578 293.652 126.954 343.943C136.625 376.826 140.493 411.643 138.559 445.492C137.592 453.23 136.625 463.868 134.691 472.572L143.395 431.953C148.23 411.643 150.165 391.333 151.132 371.023C152.099 345.878 151.132 321.699 149.198 296.554C147.263 276.244 151.132 255.934 160.803 237.559C162.737 233.69 164.672 230.789 165.639 226.92C158.869 222.085 132.756 201.775 155.968 183.399C149.198 177.596 144.362 168.892 142.428 160.188C142.428 153.418 145.329 147.615 151.132 143.747L114.381 142.78L109.545 143.747Z" fill="#C6C5C2"/>
<path d="M164.672 227.887C162.738 231.756 161.771 234.657 159.836 238.526C150.165 256.901 146.296 277.211 148.231 297.521C150.165 322.666 151.132 346.845 150.165 371.99C149.198 392.3 146.296 412.61 142.428 432.92L133.724 473.539C133.724 473.539 154.033 385.53 174.343 318.798C194.653 252.066 180.146 239.493 165.639 228.855L164.672 227.887ZM291.366 142.78C263.32 144.714 242.043 145.681 215.93 145.681C197.554 145.681 177.245 145.681 150.165 144.714C145.329 148.582 141.461 154.385 141.461 161.155C143.395 169.859 148.231 178.564 155.001 184.366C156.935 182.432 158.869 181.465 161.77 179.531C187.883 165.024 206.259 165.991 240.108 158.254C257.517 154.385 273.958 149.55 291.366 142.78Z" fill="#AFAFB9"/>
</svg>
